<?xml version="1.0" standalone="no"?><!DOCTYPE svg PUBLIC "-//W3C//DTD SVG 1.1//EN" "http://www.w3.org/Graphics/SVG/1.1/DTD/svg11.dtd"><svg t="1722474772196" class="icon" viewBox="0 0 1024 1024" version="1.1" xmlns="http://www.w3.org/2000/svg" p-id="20410" xmlns:xlink="http://www.w3.org/1999/xlink" width="200" height="200"><path d="M512 512m-384 0a384 384 0 1 0 768 0 384 384 0 1 0-768 0Z" fill="#E4E3E3" p-id="20411"></path><path d="M192 723.2h640c6.4-12.8 19.2-25.6 25.6-44.8H166.4c6.4 19.2 19.2 32 25.6 44.8z" fill="#F293C6" p-id="20412"></path><path d="M166.4 684.8h684.8c12.8-25.6 25.6-51.2 32-83.2H140.8c6.4 25.6 12.8 51.2 25.6 83.2z" fill="#FF43A8" p-id="20413"></path><path d="M128 480v76.8h768V512v-32H128z" fill="#43F4FF" p-id="20414"></path><path d="M128 480h768c0-12.8 0-19.2-6.4-32H134.4c0 12.8-6.4 25.6-6.4 32z" fill="#5CFAA1" p-id="20415"></path><path d="M134.4 448h755.2c-6.4-25.6-12.8-51.2-19.2-70.4H153.6c-12.8 25.6-19.2 44.8-19.2 70.4z" fill="#74FF43" p-id="20416"></path><path d="M140.8 601.6h748.8c0-12.8 6.4-25.6 6.4-44.8H128c6.4 12.8 6.4 25.6 12.8 44.8z" fill="#A19CD4" p-id="20417"></path><path d="M185.6 307.2h652.8c-6.4-6.4-12.8-19.2-19.2-25.6H204.8c-6.4 12.8-12.8 19.2-19.2 25.6z" fill="#F2D193" p-id="20418"></path><path d="M153.6 377.6h716.8c-6.4-25.6-19.2-44.8-32-70.4H185.6c-12.8 25.6-25.6 44.8-32 70.4z" fill="#FFBF43" p-id="20419"></path><path d="M512 512m-160 0a160 160 0 1 0 320 0 160 160 0 1 0-320 0Z" fill="#FAFAFA" p-id="20420"></path><path d="M512 704c-108.8 0-192-83.2-192-192s83.2-192 192-192 192 83.2 192 192-83.2 192-192 192z m0-320c-70.4 0-128 57.6-128 128s57.6 128 128 128 128-57.6 128-128-57.6-128-128-128z" fill="#FFFFFF" p-id="20421"></path><path d="M512 512m-96 0a96 96 0 1 0 192 0 96 96 0 1 0-192 0Z" fill="#FAFAFA" p-id="20422"></path><path d="M512 640c-70.4 0-128-57.6-128-128s57.6-128 128-128 128 57.6 128 128-57.6 128-128 128z m0-192c-38.4 0-64 25.6-64 64s25.6 64 64 64 64-25.6 64-64-25.6-64-64-64z" p-id="20423"></path><path d="M512 896c-211.2 0-384-172.8-384-384s172.8-384 384-384 384 172.8 384 384-172.8 384-384 384zM512 192C332.8 192 192 332.8 192 512s140.8 320 320 320 320-140.8 320-320-140.8-320-320-320z" p-id="20424"></path></svg>