<?xml version="1.0" standalone="no"?><!DOCTYPE svg PUBLIC "-//W3C//DTD SVG 1.1//EN" "http://www.w3.org/Graphics/SVG/1.1/DTD/svg11.dtd"><svg t="1722474873723" class="icon" viewBox="0 0 1024 1024" version="1.1" xmlns="http://www.w3.org/2000/svg" p-id="24992" xmlns:xlink="http://www.w3.org/1999/xlink" width="200" height="200"><path d="M798.5 729.3H620.7v34.9c0 49.5-41 87.7-91.5 87.7h-38.8c-50.5 0-105.8-38.2-105.8-87.7v-34.9H195c-11.4 0-21.7-2.5-30.7-7-0.6 17.4-1.4 77.5-2.3 102-2 54.9 43.9 99.4 102.4 99.4h518.8c58.5 0 105.9-47.4 105.9-105.9V701.2c0-33.3-13.6-50.3-13.6-50.3 0.9 20.8-8.4 40.5-22.6 55.3-14.3 14.9-33.6 23.1-54.4 23.1z" fill="#F2D7D9" p-id="24993"></path><path d="M852.8 706.3c-10.9 11.4-24.9 18.9-40.2 21.7-2.9 70.9-12.1 142.6-33.6 195.7h4.3c58.5 0 105.9-47.4 105.9-105.9V701.2c0-33.3-13.6-50.3-13.6-50.3 0.7 20.9-8.6 40.6-22.8 55.4z" fill="#EAADB8" p-id="24994"></path><path d="M783.2 937H264.4c-32.7 0-63.9-12.9-85.6-35.4-20.4-21.1-31-48.7-30-77.7 0.5-13.2 0.9-37.3 1.3-58.5 0.3-18.2 0.7-35.4 1-43.5l0.7-20.7 18.5 9.3c7.4 3.7 15.7 5.6 24.7 5.6h202.9v48.2c0 41.9 49.7 74.5 92.5 74.5h38.8c43.9 0 78.3-32.7 78.3-74.5v-48.2h191c17.2 0 33.1-6.7 44.8-18.9 12.9-13.5 19.6-29.7 18.9-45.6l-1.8-40.4 25.4 31.6c1.7 2.1 16.6 21.7 16.6 58.6V818c-0.1 65.6-53.5 119-119.2 119zM177.1 740.7c-0.2 7.5-0.3 16.2-0.5 25.1-0.4 21.4-0.9 45.6-1.3 59-0.8 21.7 7.2 42.5 22.6 58.4 17 17.6 40.6 27.3 66.5 27.3h518.8c51.1 0 92.6-41.6 92.6-92.6V701.3v-3.1c-3.7 6-8.2 11.8-13.4 17.3-16.7 17.5-39.4 27.1-63.9 27.1H634v21.7c0 27.5-11 53.1-31 72-19.6 18.7-45.9 28.9-73.8 28.9h-38.8c-28 0-57.1-10.2-80-28.1-25.2-19.7-39.1-45.6-39.1-72.9v-21.7H195c-6.2 0.1-12.2-0.5-17.9-1.8z" fill="#DB6B83" p-id="24995"></path><path d="M440.2 115.6c30 0 63.5 10.9 101.5 37.7 100.5 70.9 130.8 119.1 150.9 151.1 13.2 20.8 21.1 33.5 42.2 43.1C808.1 381 892 473 859.2 574.5l0.7 74.8c1.4 31.1-22.8 56.4-54 56.4H593v55.9c0 38-31.6 68.8-70.6 68.8h-38.8c-39 0-70.6-30.8-70.6-68.8v-55.9H202.4c-31.2 0-47.3-23.6-38.6-53.5 9-31.3 17.9-66.2 22.5-84.4-18.7-51.8-63.7-201.6 16.2-259.1 22.3-16.1 44.2-43.4 67.4-72.3 44.5-55.6 96.8-120.8 170.3-120.8m0-28.6c-39.7 0-77.1 15.1-114.3 46.2-30.1 25.1-55.7 57.1-78.3 85.3-21.9 27.3-42.5 53.1-61.8 67-23.8 17.1-40.5 41.5-49.6 72.5-7.1 24.1-9.5 52.5-7.3 84.3 3.5 49.5 17.7 98 27.6 126.8-5.4 21.5-12.8 49.6-20.1 75.1-3.3 11.4-4.2 22.5-2.8 33.2 1.5 11.3 5.8 21.9 12.3 30.6 12.7 16.9 32.8 26.2 56.6 26.2h182v27.3c0 26.2 10.4 50.7 29.3 69.1 18.7 18.2 43.5 28.2 69.8 28.2h38.8c26.3 0 51.2-10 69.8-28.2 18.9-18.4 29.3-43 29.3-69.1v-27.3h184.4c22.9 0 44.2-9 59.8-25.3 15.5-16.2 23.6-37.6 22.7-60.4l-0.6-74.1c8.7-28.5 10.6-43.4 5.6-72.6-4.7-27.1-15.2-53.7-31.3-79-27.2-42.8-70.4-80.7-115.4-101.3-12.8-5.8-17-11.9-29.8-32.2l-0.1-0.2c-10.1-16.1-24-38.1-48.3-64.9-28.1-30.9-64.2-61.8-110.3-94.3-20.4-14.4-40.8-25.3-60.5-32.4-19.4-7-38.7-10.5-57.5-10.5z" fill="#DB6B83" p-id="24996"></path><path d="M484.6 839.2h38.8c46.8 0 84.9-37.3 84.9-83.1v-41.6l193.9-0.2c19 0 36.6-7.4 49.5-20.9 12.9-13.4 19.5-31.2 18.7-50.1l-0.6-62.2c-0.1-4.3-0.1-9.1-0.2-13.1H171.2c-5.4 21.5-12.8 49.5-20.1 74.8-5.6 19.4-3.1 37.6 7.2 51.3 9.9 13.2 26 20.5 45.1 20.5h196.3v41.6c0.1 45.7 38.1 83 84.9 83z" fill="#F2D7D9" p-id="24997"></path><path d="M446.1 715.5v69.6h115.2v-69.6H446.1z m97.9 52.3h-80.5v-35H544v35z" fill="#DB6B83" p-id="24998"></path><path d="M897 642.5l-0.6-61.8v-0.4c-0.1-2-0.1-4.3-0.1-6.5s-0.1-4.5-0.1-6.6l-0.7-25.8H150.6l-5.1 20c-4.9 19.5-12.4 48.2-19.8 73.9-3.8 13.3-4.9 26.3-3.2 38.9 1.9 13.3 6.8 25.3 14.6 35.7 7.6 10.2 17.5 18 29.3 23.4 11.2 5.1 23.6 7.7 37 7.7h169.8v15.1c0 60.4 50 109.6 111.4 109.6h38.8c61.4 0 111.4-49.2 111.4-109.6V741l167.4-0.2c26.3 0 50.7-10.3 68.6-29.1 17.8-18.6 27.1-43.2 26.2-69.2z m-45.3 50.8c-12.9 13.5-30.5 20.9-49.5 20.9l-193.9 0.2V756c0 45.8-38.1 83.1-84.9 83.1h-38.8c-46.8 0-84.9-37.3-84.9-83.1v-41.6H203.5c-19.2 0-35.2-7.3-45.1-20.5-10.3-13.7-12.8-31.9-7.2-51.3 7.3-25.3 14.6-53.3 20.1-74.8h698.3c0.1 4 0.1 8.8 0.2 13.1l0.6 62.2c0.8 19-5.8 36.8-18.7 50.2z" fill="#DB6B83" p-id="24999"></path><path d="M869.8 581c-0.1-4.3-0.1-9.1-0.2-13.1h-59.3c2.6 42.3 4.3 93.4 2.8 145.5 14.8-2.3 28.2-9.2 38.7-20.1 12.9-13.4 19.5-31.2 18.7-50.1l-0.7-62.2z" fill="#EAADB8" p-id="25000"></path></svg>