<?xml version="1.0" standalone="no"?><!DOCTYPE svg PUBLIC "-//W3C//DTD SVG 1.1//EN" "http://www.w3.org/Graphics/SVG/1.1/DTD/svg11.dtd"><svg t="1722474691225" class="icon" viewBox="0 0 1024 1024" version="1.1" xmlns="http://www.w3.org/2000/svg" p-id="14205" xmlns:xlink="http://www.w3.org/1999/xlink" width="200" height="200"><path d="M512 1024Q0 1024 0 512T512 0q512 0 512 512T512 1024z" fill="#E87CB2" p-id="14206"></path><path d="M581.818182 1021.323636q410.996364-31.418182 439.738182-444.974545L711.68 266.24 596.363636 500.363636l-174.545454-232.727272-162.909091 395.636363 34.909091 34.909091-24.436364 10.472727z" fill="#C94393" p-id="14207"></path><path d="M288.349091 267.636364l145.105454 0 0 477.090909-145.105454 0 0-477.090909Z" fill="#FFFFFF" p-id="14208"></path><path d="M253.44 349.090909l145.105455 0 0 314.181818-145.105455 0 0-314.181818Z" fill="#FFFFFF" p-id="14209"></path><path d="M625.803636 349.090909l145.105455 0 0 314.181818-145.105455 0 0-314.181818Z" fill="#FFFFFF" p-id="14210"></path><path d="M584.727273 267.636364l145.105454 0 0 477.090909-145.105454 0 0-477.090909Z" fill="#FFFFFF" p-id="14211"></path><path d="M375.272727 465.454545h267.636364v81.454546h-267.636364z" fill="#FFFFFF" p-id="14212"></path></svg>