<?xml version="1.0" standalone="no"?><!DOCTYPE svg PUBLIC "-//W3C//DTD SVG 1.1//EN" "http://www.w3.org/Graphics/SVG/1.1/DTD/svg11.dtd"><svg t="1722474898854" class="icon" viewBox="0 0 1251 1024" version="1.1" xmlns="http://www.w3.org/2000/svg" p-id="26082" xmlns:xlink="http://www.w3.org/1999/xlink" width="244.3359375" height="200"><path d="M612.693333 878.762667l-327.509333-252.814223v353.393778h669.354667v-363.975111z" fill="#BBE2FF" p-id="26083"></path><path d="M948.906667 637.781333l265.102222-205.596444a28.444444 28.444444 0 0 0-2.218667-46.478222L636.017778 20.138667a56.888889 56.888889 0 0 0-62.293334 0.853333L31.288889 386.389333a28.444444 28.444444 0 0 0-2.503111 45.283556l256.455111 216.746667v-27.420445H948.906667v16.782222z" fill="#3396FB" p-id="26084"></path><path d="M937.756444 615.367111H285.184v31.744l310.158222 239.445333a28.444444 28.444444 0 0 0 34.702222 0l324.494223-250.026666v-21.162667h-16.782223z" fill="#65AFE7" p-id="26085"></path><path d="M1146.936889 812.771556a18.090667 18.090667 0 0 1-18.033778-18.090667V470.926222a18.090667 18.090667 0 0 1 36.124445 0v323.754667a18.090667 18.090667 0 0 1-18.090667 18.090667z" fill="#3396FB" p-id="26086"></path><path d="M594.488889 453.688889l-55.182222 29.013333 10.524444-61.44-44.600889-43.52 61.667556-8.931555 27.591111-55.921778 27.591111 55.921778 61.667556 8.931555-44.600889 43.52 10.524444 61.44z" fill="#FFB541" p-id="26087"></path><path d="M599.608889 310.385778h-10.24l-27.591111 55.864889-57.400889 5.859555-3.128889 9.671111 44.657778 43.576889-12.174222 56.376889 8.248888 5.973333 55.182223-29.013333 49.834666 29.013333 8.248889-5.973333-10.524444-61.44 43.008-38.456889-3.128889-9.671111-61.724445-8.988444-23.324444-52.792889z m-5.347556 14.848l22.755556 46.08 54.840889 10.012444-36.693334 35.84 7.395556 55.352889-45.397333-23.893333-50.403556 24.177778 8.704-50.631112-38.570667-40.391111 50.801778-7.395555 26.567111-49.152z" fill="#FFFFFF" p-id="26088"></path><path d="M401.066667 430.933333l-35.100445 18.432 6.712889-39.082666-28.444444-27.648 39.253333-5.688889L401.066667 341.333333l17.578666 35.555556 39.253334 5.688889-28.444445 27.704889 6.712889 39.082666z" fill="#FFB541" p-id="26089"></path><path d="M403.626667 340.081778h-5.12l-17.521778 35.555555-37.148445 4.152889 26.851556 32.540445-7.509333 36.579555 39.253333-15.473778 32.426667 18.488889-2.56-42.097777 27.591111-25.201778-40.846222-10.524445-15.416889-34.019555z m-2.673778 7.452444l15.132444 30.606222 41.358223 7.281778-29.980445 22.812445 5.916445 41.642666-31.004445-21.447111-37.717333 18.432 10.808889-36.067555-29.240889-30.208 37.717333-0.853334 17.009778-32.199111z" fill="#FFFFFF" p-id="26090"></path><path d="M799.288889 430.933333l-35.100445 18.432 6.712889-39.082666-28.444444-27.648 39.253333-5.688889L799.288889 341.333333l17.578667 35.555556 39.253333 5.688889-28.444445 27.704889 6.712889 39.082666z" fill="#FFB541" p-id="26091"></path><path d="M801.848889 340.081778h-5.12l-17.521778 35.555555-37.148444 4.152889 26.851555 32.540445-7.509333 36.579555 39.253333-15.473778 32.426667 18.488889-2.56-42.097777 27.591111-25.201778-40.846222-10.524445-15.416889-34.019555z m-2.673778 7.452444l15.132445 30.606222 41.358222 7.281778-29.980445 22.812445 5.916445 41.642666-31.004445-21.447111-37.717333 18.432 10.808889-36.067555-29.240889-30.208 37.717333-0.853334 17.009778-32.199111z" fill="#FFFFFF" p-id="26092"></path></svg>