<?xml version="1.0" standalone="no"?><!DOCTYPE svg PUBLIC "-//W3C//DTD SVG 1.1//EN" "http://www.w3.org/Graphics/SVG/1.1/DTD/svg11.dtd"><svg t="1722474841153" class="icon" viewBox="0 0 1024 1024" version="1.1" xmlns="http://www.w3.org/2000/svg" p-id="23772" xmlns:xlink="http://www.w3.org/1999/xlink" width="200" height="200"><path d="M316.574928 80s156.307692 68.923077 278.153846 0C577.498005 82.461538 748.574928 14.769231 748.574928 14.769231L849.498005 160l-139.076923 104.615385s-22.153846 161.230769 61.538461 185.846153-452.923077 192-556.307692 8.615385C215.651851 450.461538 295.651851 297.846154 295.651851 297.846154L86.421082 187.076923 209.498005 27.076923l-8.615385 19.692308s97.230769 29.538462 115.692308 33.230769z" fill="#FE8796" p-id="23773"></path><path d="M437.190313 556.307692c-102.153846 0-193.230769-24.615385-231.384616-91.076923l-1.230769-2.461538v-2.461539c0-3.692308-1.230769-12.307692 75.076923-157.538461L67.959543 190.769231 199.651851 19.692308l20.923077 12.307692-2.461538 7.384615c32 9.846154 88.615385 25.846154 100.923077 28.307693l2.461538 1.230769c1.230769 1.230769 151.384615 65.230769 265.846154 1.230769 13.538462-8.615385 52.923077-24.615385 157.538461-66.461538l8.615385-3.692308L866.728774 162.461538l-144 109.538462C719.036467 297.846154 711.651851 420.923077 775.651851 439.384615c16 4.923077 17.230769 13.538462 17.230769 19.692308 0 28.307692-88.615385 55.384615-140.307692 68.923077C584.88262 544 507.344159 556.307692 437.190313 556.307692z m-208-98.461538c36.923077 57.846154 124.307692 72.615385 193.230769 73.846154 146.461538 2.461538 306.461538-46.769231 340.923077-70.153846-86.153846-32-66.461538-190.769231-65.230769-198.153847l1.230769-4.923077 134.153846-100.923076-88.615385-128C689.498005 51.692308 608.267236 84.923077 600.88262 89.846154l-1.230769-1.230769 1.230769 2.461538c-121.846154 68.923077-270.769231 8.615385-288 1.230769-19.692308-3.692308-97.230769-27.076923-113.230769-32l-94.769231 123.076923 206.769231 109.538462-6.153846 11.076923c-32 62.769231-68.923077 135.384615-76.307692 153.846154z" p-id="23774"></path><path d="M221.805697 544s279.384615 125.538462 516.923077-12.307692c-6.153846 12.307692 196.923077 393.846154 196.923077 393.846154S380.574928 1132.307692 147.959543 900.923077c-11.076923-6.153846-61.538462-49.230769-61.538461-49.230769l135.384615-307.692308z" fill="#FE8796" p-id="23775"></path><path d="M482.728774 1024c-128 0-256-27.076923-343.384615-113.230769-13.538462-8.615385-56.615385-45.538462-61.538462-49.230769l-7.384615-6.153847 144-327.384615 11.076923 4.923077c2.461538 1.230769 276.923077 121.846154 505.846154-12.307692l38.153846-22.153847-18.461538 35.692308c9.846154 33.230769 123.076923 251.076923 195.692307 385.230769l6.153846 12.307693-13.538461 4.923077c-13.538462 6.153846-235.076923 87.384615-456.615385 87.384615z m-381.538461-176C120.88262 864 147.959543 886.153846 154.11339 889.846154l2.461538 1.230769c205.538462 204.307692 675.692308 55.384615 761.846154 27.076923C787.959543 674.461538 744.88262 584.615385 731.344159 550.153846c-209.230769 113.230769-448 30.769231-503.384616 9.846154L101.190313 848z" p-id="23776"></path></svg>