<?xml version="1.0" standalone="no"?><!DOCTYPE svg PUBLIC "-//W3C//DTD SVG 1.1//EN" "http://www.w3.org/Graphics/SVG/1.1/DTD/svg11.dtd"><svg t="1722475368198" class="icon" viewBox="0 0 1024 1024" version="1.1" xmlns="http://www.w3.org/2000/svg" p-id="35336" xmlns:xlink="http://www.w3.org/1999/xlink" width="200" height="200"><path d="M512 36.141176c68.266667 0 132.517647 27.105882 180.705882 75.294118L913.568627 331.294118c48.188235 48.188235 75.294118 112.439216 75.294118 180.705882S961.756863 644.517647 913.568627 692.705882L693.709804 913.568627c-48.188235 48.188235-112.439216 75.294118-180.705882 75.294118-68.266667 0-132.517647-27.105882-180.705883-75.294118l-220.862745-220.862745c-99.388235-99.388235-99.388235-262.023529 0-362.415686L331.294118 110.431373c48.188235-48.188235 112.439216-74.290196 180.705882-74.290197m0-30.117647c-73.286275 0-146.572549 28.109804-202.792157 83.325491L90.352941 309.207843a285.997176 285.997176 0 0 0 0 405.584314l219.858824 219.858823c56.219608 56.219608 129.505882 83.32549 202.792157 83.325491s146.572549-28.109804 202.792156-83.325491l219.858824-219.858823c111.435294-111.435294 111.435294-293.145098 0-404.580392l-220.862745-220.862745C658.572549 34.133333 585.286275 6.023529 512 6.023529z" fill="#575757" p-id="35337"></path><path d="M643.513725 350.368627v311.215687h-261.019607v-311.215687h261.019607m40.156863-60.235294h-341.333333c-11.043137 0-20.078431 9.035294-20.078431 20.078432v391.529411c0 11.043137 9.035294 20.078431 20.078431 20.078432h341.333333c11.043137 0 20.078431-9.035294 20.078432-20.078432v-391.529411c0-11.043137-9.035294-20.078431-20.078432-20.078432z" fill="#2396F4" p-id="35338"></path><path d="M654.556863 622.431373h-291.137255c-17.066667 0-30.117647-13.05098-30.117647-30.117648s13.05098-30.117647 30.117647-30.117647h291.137255c17.066667 0 30.117647 13.05098 30.117647 30.117647s-13.05098 30.117647-30.117647 30.117648z" fill="#2396F4" p-id="35339"></path><path d="M509.992157 458.792157L456.784314 421.647059c-9.035294-6.023529-11.043137-19.07451-5.019608-28.109804 6.023529-9.035294 19.07451-11.043137 28.109804-5.019608l30.117647 20.078431 30.117647-22.086274c9.035294-7.027451 21.082353-5.019608 28.109804 4.015686 7.027451 9.035294 5.019608 21.082353-4.015686 28.109804l-54.211765 40.156863z" fill="#E85F5B" p-id="35340"></path><path d="M557.176471 469.835294H461.803922c-8.031373 0-15.058824-7.027451-15.058824-15.058823s7.027451-15.058824 15.058824-15.058824h95.372549c8.031373 0 15.058824 7.027451 15.058823 15.058824s-7.027451 15.058824-15.058823 15.058823zM557.176471 509.992157H461.803922c-8.031373 0-15.058824-7.027451-15.058824-15.058824s7.027451-15.058824 15.058824-15.058823h95.372549c8.031373 0 15.058824 7.027451 15.058823 15.058823s-7.027451 15.058824-15.058823 15.058824z" fill="#E85F5B" p-id="35341"></path><path d="M508.988235 545.129412c-11.043137 0-20.078431-9.035294-20.078431-20.078432v-90.352941c0-11.043137 9.035294-20.078431 20.078431-20.078431s20.078431 9.035294 20.078432 20.078431v90.352941c0 11.043137-9.035294 20.078431-20.078432 20.078432z" fill="#E85F5B" p-id="35342"></path></svg>