<?xml version="1.0" standalone="no"?><!DOCTYPE svg PUBLIC "-//W3C//DTD SVG 1.1//EN" "http://www.w3.org/Graphics/SVG/1.1/DTD/svg11.dtd"><svg t="1722474527341" class="icon" viewBox="0 0 1024 1024" version="1.1" xmlns="http://www.w3.org/2000/svg" p-id="7236" xmlns:xlink="http://www.w3.org/1999/xlink" width="200" height="200"><path d="M557.42976 412.09856c-0.92672-4.1728 0 11.58656 0 15.75936 0 64.4352 12.05248 156.22144 80.66048 156.22144 31.52384 0 51.456-20.39808 62.58176-48.67584 11.59168-74.1632-98.7392 59.34592-143.24224-123.30496zM431.80032 552.56064H375.2448c-12.5184 0-22.71744 10.65984-22.71744 23.17824v152.05376c0 12.9792 10.19904 23.17824 22.71744 23.17824h56.55552c12.5184 0 22.71744-10.65984 22.71744-23.17824v-152.05376c0-12.9792-10.19904-23.17824-22.71744-23.17824z" fill="#FD87B8" p-id="7237"></path><path d="M512 0C229.22752 0 0 229.22752 0 512s229.22752 512 512 512 512-229.22752 512-512S794.77248 0 512 0zM352.53248 248.45824c0-12.9792 10.19904-23.17824 22.71744-23.17824h22.71744c12.5184 0 22.71744 10.65984 22.71744 23.17824v23.17824h-68.1472v-23.17824z m136.75008 490.92608h-0.46592c0 32.45056-25.4976 58.40896-56.55552 58.40896H341.4016c-31.52384 0-56.55552-25.9584-56.55552-58.40896v-169.20576c0-7.87968 0.46592-10.19904 0.46592-22.71744 13.44512-119.6032 56.09472-97.35168 67.68128-147.88096V283.68896h68.1472v115.4304c11.58656 50.06336 54.70208 28.27776 67.68128 147.88096 0 9.27232 0.46592 14.83264 0.46592 22.71232v169.67168z m248.93952-275.82976c0 78.80704-36.62336 143.70816-90.39872 150.1952v138.60864c39.86432 1.85344 71.38816 17.61792 71.38816 41.25696 0 1.85344 0 3.24608-0.46592 5.09952h-159.46752c-0.46592-1.85344-0.46592-3.24608-0.46592-5.09952 0-22.25152 28.74368-37.55008 66.28864-40.79616v-139.53536c-51.92192-9.73312-90.39872-72.7808-90.39872-149.26848V353.6896h203.97056v93.63968h0.46592c0.01024 5.09952-0.91648 10.66496-0.91648 16.22528z" fill="#FD87B8" p-id="7238"></path></svg>