<?xml version="1.0" standalone="no"?><!DOCTYPE svg PUBLIC "-//W3C//DTD SVG 1.1//EN" "http://www.w3.org/Graphics/SVG/1.1/DTD/svg11.dtd"><svg t="1722474498873" class="icon" viewBox="0 0 1024 1024" version="1.1" xmlns="http://www.w3.org/2000/svg" p-id="6186" xmlns:xlink="http://www.w3.org/1999/xlink" width="200" height="200"><path d="M512 12.487805c274.731707 0 499.512195 224.780488 499.512195 499.512195s-224.780488 499.512195-499.512195 499.512195-499.512195-224.780488-499.512195-499.512195 224.780488-499.512195 499.512195-499.512195z" fill="#1CC807" p-id="6187"></path><path d="M614.999415 534.153366V704.312195c0 14.485854-4.195902 26.22439-14.610732 26.22439-10.389854 0-15.260098-11.738537-15.260098-26.22439v-170.158829c-28.921756-11.48878-52.798439-48.128-52.798439-92.085073v-52.448781c0-53.098146 30.894829-96.156098 69.032586-96.156097 38.137756 0 66.435122 43.057951 66.435122 96.156097v52.448781c0 43.957073-23.876683 80.596293-52.798439 92.085073z m-165.713171-34.116683V704.312195c0 14.485854-2.997073 26.22439-14.685659 26.22439-11.738537 0-16.334049-11.738537-16.334048-26.22439v-204.275512c-23.726829-6.993171-49.451707-25.225366-62.064391-50.051122V310.946341c0-9.640585 7.617561-17.482927 15.434927-17.482926 7.79239 0 15.434927 7.842341 15.434927 17.482926v113.464196h10.564683V310.946341c0-9.640585 7.942244-17.482927 15.734634-17.482926s15.110244 7.842341 15.110244 17.482926v113.464196h10.889366V310.946341c0-9.640585 7.292878-17.482927 15.110244-17.482926s15.734634 7.842341 15.734634 17.482926v113.464196h10.589658V310.946341c0-9.640585 7.617561-17.482927 15.434927-17.482926s15.434927 7.842341 15.434927 17.482926v139.03922c-12.612683 24.825756-38.662244 43.082927-62.389073 50.051122z" fill="#FFFFFF" p-id="6188"></path></svg>