<?xml version="1.0" standalone="no"?><!DOCTYPE svg PUBLIC "-//W3C//DTD SVG 1.1//EN" "http://www.w3.org/Graphics/SVG/1.1/DTD/svg11.dtd"><svg t="1722474598898" class="icon" viewBox="0 0 1024 1024" version="1.1" xmlns="http://www.w3.org/2000/svg" p-id="10853" xmlns:xlink="http://www.w3.org/1999/xlink" width="200" height="200"><path d="M417.394627 229.253731h372.613731a183.402985 183.402985 0 0 1 183.402985 183.402985v168.119403H233.991642V412.656716a183.402985 183.402985 0 0 1 183.402985-183.402985z" fill="#FFCB57" p-id="10854"></path><path d="M978.149254 626.626866H45.850746a30.567164 30.567164 0 0 1-30.567164-30.567165V336.238806A213.970149 213.970149 0 0 1 229.253731 122.268657h565.492538a213.970149 213.970149 0 0 1 213.970149 213.970149v259.820895a30.567164 30.567164 0 0 1-30.567164 30.567165zM76.41791 565.492537h871.16418V336.238806a152.835821 152.835821 0 0 0-152.835821-152.835821H229.253731A152.835821 152.835821 0 0 0 76.41791 336.238806z" fill="#472D22" p-id="10855"></path><path d="M978.149254 855.880597H45.850746a30.567164 30.567164 0 0 1-30.567164-30.567164V596.059701a30.567164 30.567164 0 0 1 30.567164-30.567164h932.298508a30.567164 30.567164 0 0 1 30.567164 30.567164v229.253732a30.567164 30.567164 0 0 1-30.567164 30.567164zM76.41791 794.746269h871.16418V626.626866H76.41791zM626.626866 61.134328H397.373134a30.567164 30.567164 0 0 1 0-61.134328h229.253732a30.567164 30.567164 0 0 1 0 61.134328z" fill="#472D22" p-id="10856"></path><path d="M275.104478 1024h-91.701493a76.41791 76.41791 0 0 1-76.41791-76.41791v-106.985075a30.567164 30.567164 0 0 1 61.134328 0v106.985075a15.283582 15.283582 0 0 0 15.283582 15.283582h91.701493a15.283582 15.283582 0 0 0 15.283582-15.283582v-106.985075a30.567164 30.567164 0 0 1 61.134328 0v106.985075a76.41791 76.41791 0 0 1-76.41791 76.41791zM840.597015 1024h-91.701493a76.41791 76.41791 0 0 1-76.41791-76.41791v-106.985075a30.567164 30.567164 0 0 1 61.134328 0v106.985075a15.283582 15.283582 0 0 0 15.283582 15.283582h91.701493a15.283582 15.283582 0 0 0 15.283582-15.283582v-106.985075a30.567164 30.567164 0 0 1 61.134328 0v106.985075a76.41791 76.41791 0 0 1-76.41791 76.41791zM473.791045 519.641791a30.567164 30.567164 0 0 1-21.549851-52.117015l206.328358-206.328358a30.567164 30.567164 0 0 1 43.099702 43.099701l-206.328358 206.328359A30.567164 30.567164 0 0 1 473.791045 519.641791zM336.238806 458.507463a30.567164 30.567164 0 0 1-21.549851-52.117015l129.910448-129.910448a30.567164 30.567164 0 0 1 43.099701 43.099701l-129.910447 129.910448A30.567164 30.567164 0 0 1 336.238806 458.507463z" fill="#472D22" p-id="10857"></path></svg>